<svg id="Finalised" xmlns="http://www.w3.org/2000/svg" viewBox="0 0 3401.57 3401.57"><defs><style>.cls-1{fill:#010101;}</style></defs><title>MMNTM_Icons_Final</title><polygon class="cls-1" points="2608.46 2406.93 788.85 2406.93 624.36 2746.64 2777.22 2746.64 2608.46 2406.93"/><rect class="cls-1" x="1948.86" y="1070.67" width="137.23" height="73.38" transform="translate(-195.67 1738.59) rotate(-44.68)"/><rect class="cls-1" x="1975.23" y="1676.06" width="73.38" height="131.38" transform="translate(-643.34 1918.13) rotate(-44.68)"/><rect class="cls-1" x="1352.97" y="1040.28" width="73.38" height="131.38" transform="translate(-376.1 1296.81) rotate(-44.68)"/><path class="cls-1" d="M1696.52,2198.28c427.7,2.35,776.33-342.46,778.69-770.16s-342.46-776.33-770.16-778.68S928.72,991.89,926.37,1419.59,1268.82,2195.92,1696.52,2198.28ZM1155.3,1638.37l113.46-112.21L1407.08,1666l.23,0,239.93-239.15-237.47-248.41L1269.91,1316.8l-112.22-113.46,31.21-30.86-79.25-80.14,269.46-266.52L1458.37,906l31.21-30.87L1601.8,988.55l-139.87,138.32,239.16,241.81,241.81-239.16L1804.56,989.66,1918,877.45l30.87,31.21L2029,829.4l266.52,269.47-80.14,79.26,30.87,31.21-113.47,112.21L1994.49,1181.7l-242.1,244.93,239.42,242.61,139.86-138.33,112.21,113.46-31.21,30.87,79.26,80.13-269.46,266.52-79.26-80.13L1912,1972.62l-112.22-113.45,139.86-138.33L1700.48,1479l-241.8,239.15L1597,1858.05l-113.45,112.21-30.87-31.21-80.15,79.27L1106,1748.85l80.14-79.27Z"/><rect class="cls-1" x="1315.48" y="1703.67" width="137.23" height="73.38" transform="translate(-823.8 1476.25) rotate(-44.68)"/></svg>