<svg id="Finalised" xmlns="http://www.w3.org/2000/svg" viewBox="0 0 3401.57 3401.57"><defs><style>.cls-1{fill:#010101;}</style></defs><title>MMNTM_Icons_Final</title><path class="cls-1" d="M1696.79,894.8c-445.14,0-806,360.85-806,806s360.85,806,806,806,806-360.85,806-806S2141.92,894.8,1696.79,894.8Zm-84.52,833.06a253.88,253.88,0,0,1-91.75,90.12,247.48,247.48,0,0,1-125.36,33.42H1269.89v199.16H1092.37V1350.62L1230.5,1352h164.66c45.4,0,87.9,11.24,126.32,33.41a249.24,249.24,0,0,1,91.51,91,245.81,245.81,0,0,1,33.87,125.78C1646.86,1647.38,1635.22,1689.67,1612.27,1727.86Zm490.08-199.51v522.21H1924.83V1528.35H1707.9V1352h613.7l-1.75,176.39Z"/><path class="cls-1" d="M1388.27,1521.67H1265.89v160h120.45c25.38,0,44.82-7,59.42-21.44s21.5-33,21.5-58.08-6.92-44.48-21.15-59.19C1432,1528.45,1413.65,1521.67,1388.27,1521.67Z"/></svg>