<svg id="Finalised" xmlns="http://www.w3.org/2000/svg" viewBox="0 0 3401.57 3401.57"><defs><style>.cls-1{fill:#010101;}</style></defs><title>MMNTM_Icons_Final</title><path class="cls-1" d="M1006.77,1580.08a128.61,128.61,0,0,0-67.48-18.35,127.17,127.17,0,0,0-66.79,18.36,138.21,138.21,0,0,0-49.67,50,133,133,0,0,0,0,134.74,138,138,0,0,0,49.69,50,127.09,127.09,0,0,0,66.79,18.36c24.65,0,46.72-6,67.49-18.35A135.38,135.38,0,0,0,1056,1765a135.29,135.29,0,0,0,0-135A135.33,135.33,0,0,0,1006.77,1580.08Z"/><path class="cls-1" d="M1497.19,1560.34h-95.3v128.57h93.87c20.17,0,35.71-5.68,47.52-17.34h0c11.73-11.59,17.43-26.83,17.43-46.59,0-20-5.59-35.41-17.1-47.29C1532.33,1566,1517.12,1560.34,1497.19,1560.34Z"/><path class="cls-1" d="M2830,1234.74H571.53a32.43,32.43,0,0,0-32.33,32.33V2134.5a32.43,32.43,0,0,0,32.33,32.33H2830a32.44,32.44,0,0,0,32.34-32.33V1267.07A32.44,32.44,0,0,0,2830,1234.74Zm-1669.44,589a253.88,253.88,0,0,1-93.08,90.86c-38.88,22.14-82,33.37-128.23,33.37s-89.36-11.23-128.24-33.38A253.45,253.45,0,0,1,718,1823.78c-23-38.35-34.69-80.85-34.69-126.29S695,1609.55,718,1571.19a253.55,253.55,0,0,1,93.07-90.86c38.9-22.13,82-33.37,128.24-33.37s89.4,11.37,128.32,33.78h0a257.5,257.5,0,0,1,92.92,90.73c23,38.16,34.74,80.55,34.74,126S1183.62,1785.43,1160.6,1823.78ZM1653.23,1714a180.09,180.09,0,0,1-65.09,63.93,175.41,175.41,0,0,1-88.84,23.68h-97.41v145.72H1283.5V1446.74l95.4.92h120.4a177.73,177.73,0,0,1,154.42,88.19,174.26,174.26,0,0,1,24,89.12A170.43,170.43,0,0,1,1653.23,1714Zm444.55-69.7v109.89H1883.34v77.67h255.59l-1.16,115.47H1764.94V1447.66h374l-1.16,115.47H1883.34v81.15Zm579.81,303h-99.46l-226.44-290.53v290.53h-117V1447.66h98.84L2559.9,1742V1447.66h117.69Z"/></svg>