<svg id="Finalised" xmlns="http://www.w3.org/2000/svg" viewBox="0 0 3401.57 3401.57"><defs><style>.cls-1{fill:#010101;}</style></defs><title>MMNTM_Icons_Final</title><polygon class="cls-1" points="573.15 1371.6 819.83 1371.6 819.83 917.3 508.03 917.3 508.03 1018.67 304.46 1018.67 304.46 1894 508.03 1894 508.03 1995.38 819.83 1995.38 819.83 1541.08 573.15 1541.08 573.15 1371.6"/><polygon class="cls-1" points="2893.54 1018.67 2893.54 917.3 2581.74 917.3 2581.74 1371.6 2823.02 1371.6 2823.02 1541.08 2581.74 1541.08 2581.74 1995.38 2893.54 1995.38 2893.54 1894 3097.12 1894 3097.12 1018.67 2893.54 1018.67"/><path class="cls-1" d="M2339.68,1371.6V1247.75H2104.87V1371.6H1296.7V1247.75H1061.89V1371.6H819.83v169.48h242.06v730.36l148.7,212.84H2191l148.69-212.84V1541.08h242.06V1371.6Zm-234.81,899.84H1296.7V1541.08h808.17Z"/><path class="cls-1" d="M1700.79,2169c144.58,0,261.79-117.21,261.79-261.79s-117.21-261.8-261.79-261.8S1439,1762.62,1439,1907.21,1556.2,2169,1700.79,2169Z"/></svg>