<svg id="Finalised" xmlns="http://www.w3.org/2000/svg" viewBox="0 0 3401.57 3401.57"><defs><style>.cls-1{fill:#010101;}</style></defs><title>MMNTM_Icons_Final</title><circle class="cls-1" cx="1699.52" cy="2399.89" r="50.52"/><circle class="cls-1" cx="1594.26" cy="2540.77" r="50.52"/><circle class="cls-1" cx="1807.29" cy="2540.77" r="50.52"/><path class="cls-1" d="M1704.08,2252.79l-.43-.06-.42.07.34,1.15-1,.59.67.59,1-.9-.48-.29Z"/><path class="cls-1" d="M1699.63,1642.32c49.34-140.71,146.69-276.12,326.84-368.87-49.49-149.85-151.83-306.8-332.73-463.16-178.4,158.71-278.43,317-325.84,467.46C1549.3,1368.12,1648.44,1502.25,1699.63,1642.32Z"/><path class="cls-1" d="M2413.2,1666.47c-98.68,474.49-658.52,577.77-706.84,585.82l-2.12,1.94c20.43,12.05,846,492.18,1097-444.3C2654.71,1722.31,2526,1678.78,2413.2,1666.47Z"/><path class="cls-1" d="M986.45,1675.87c-112.6,13.78-240.76,59-386.13,148.55C861.94,2751.34,1672,2273,1702.58,2254.54c-.53-.47-1.49-1.32-2.65-2.37C1645.55,2243.71,1090.73,2146.09,986.45,1675.87Z"/><path class="cls-1" d="M2019.94,1770.72c101.25-74.6,230.59-122,393.26-104.25,27.81-133.74,19.11-296.86-48.18-495.79-136.68,20.32-248,56.17-338.55,102.77C2086.13,1454.06,2069,1624.3,2019.94,1770.72Z"/><path class="cls-1" d="M2019.94,1770.72c-196.43,144.72-287.09,391.49-310.08,463.09-3.12,11.48-5.16,18-5.41,18.79l1.91-.31C1733,2227.69,1930,2039.39,2019.94,1770.72Z"/><path class="cls-1" d="M1702.86,2252.61a2.35,2.35,0,0,0,.07.23l.3,0,0-.14Z"/><path class="cls-1" d="M1380.91,1774.82c-50.79-145.75-70.15-315.72-13-497.07-91.1-45.39-202.9-79.75-339.81-98.27-64.66,199.8-71.21,363-41.64,496.39C1148.8,1656,1278.71,1701.62,1380.91,1774.82Z"/><path class="cls-1" d="M1704.08,2252.79l.3,0,.07-.23-.33.06Z"/><path class="cls-1" d="M1380.91,1774.82c93,267,291.44,452.48,319,477.35l2.93.44c-.26-.77-2.4-7.28-5.67-18.71C1673.26,2162.59,1579.32,1916.93,1380.91,1774.82Z"/><path class="cls-1" d="M1709.86,2233.81c19.71-72.51,81.19-341.38-10.23-591.49-88.11,251.29-23.09,519.33-2.44,591.58,3.29,9.78,5.26,16.27,6,18.76l.46.07.47-.07C1704.82,2250.15,1706.71,2243.63,1709.86,2233.81Z"/></svg>