<svg id="Finalised" xmlns="http://www.w3.org/2000/svg" viewBox="0 0 3401.57 3401.57"><defs><style>.cls-1{fill:#010101;}</style></defs><title>MMNTM_Icons_Final</title><rect class="cls-1" x="2001.28" y="1272.97" width="166.23" height="88.88" transform="translate(-324.02 1846.35) rotate(-44.68)"/><rect class="cls-1" x="2033.22" y="2006.28" width="88.89" height="159.14" transform="translate(-866.31 2063.91) rotate(-44.69)"/><rect class="cls-1" x="1279.47" y="1236.16" width="88.89" height="159.14" transform="translate(-542.6 1311.21) rotate(-44.68)"/><path class="cls-1" d="M1706,762.72c-518.07-2.85-940.37,414.82-943.23,932.9s414.83,940.38,932.9,943.23S2636,2224,2638.85,1706,2224,765.58,1706,762.72ZM2090.44,2425.2l-96-97.08-37.8,37.39L1820.7,2228.08l169.41-167.55-289.69-292.9-292.9,289.69,167.56,169.41-137.43,135.92-37.39-37.8-97.08,96L980.35,2094.45l97.07-96-37.39-37.8,137.44-135.92L1345,1994.12l.27,0,290.63-289.68-287.65-300.91-169.41,167.56-135.93-137.43,37.81-37.39-96-97.07,326.41-322.84,96,97.07,37.81-37.39,135.93,137.43-169.42,167.56,289.7,292.9,292.9-289.69-167.57-169.41,137.43-135.93,37.39,37.81,97.08-96,322.83,326.41-97.07,96,37.39,37.8-137.43,135.93-167.56-169.41-293.26,296.68,290,293.88,169.42-167.56,135.92,137.44-37.8,37.39,96,97.07Z"/><rect class="cls-1" x="1234.06" y="2039.72" width="166.23" height="88.88" transform="translate(-1084.88 1528.46) rotate(-44.68)"/></svg>