<svg id="Finalised" xmlns="http://www.w3.org/2000/svg" viewBox="0 0 3401.57 3401.57"><defs><style>.cls-1{fill:#010101;}</style></defs><title>MMNTM_Icons_Final</title><path class="cls-1" d="M1522.9,1135.1l233.69,723.68,131.78-262.26h544.52a464.79,464.79,0,0,0,66.87-240.3c0-258.36-209.44-467.79-467.8-467.79-154.7,0-291.82,75.15-377,190.88-85.16-115.73-222.27-190.88-377-190.88-258.35,0-467.79,209.43-467.79,467.79a464.7,464.7,0,0,0,66.87,240.3H1282Z"/><polygon class="cls-1" points="1715.74 2203.65 1487.61 1498.74 1365.03 1733.53 996.51 1733.53 1654.99 2472.54 2313.45 1733.53 1967.48 1733.53 1715.74 2203.65"/><path class="cls-1" d="M877.08,1596.52H712.82v137H996.51L882.08,1605.1C880.32,1602.3,878.78,1599.36,877.08,1596.52Z"/><path class="cls-1" d="M2432.89,1596.52c-1.71,2.84-3.24,5.78-5,8.58l-114.43,128.43H2558v-137Z"/></svg>