<svg id="Finalised" xmlns="http://www.w3.org/2000/svg" viewBox="0 0 3401.57 3401.57"><defs><style>.cls-1{fill:#010101;}</style></defs><title>MMNTM_Icons_Final</title><polygon class="cls-1" points="676.93 1657.58 928.12 1657.58 928.12 1152.07 604.47 1152.07 604.47 1264.88 379.63 1264.88 379.63 2238.85 604.47 2238.85 604.47 2351.65 928.12 2351.65 928.12 1846.15 676.93 1846.15 676.93 1657.58"/><polygon class="cls-1" points="2797.09 1264.88 2797.09 1152.07 2473.45 1152.07 2473.45 1657.58 2739.68 1657.58 2739.68 1846.15 2473.45 1846.15 2473.45 2351.65 2797.09 2351.65 2797.09 2238.85 3021.94 2238.85 3021.94 1264.88 2797.09 1264.88"/><path class="cls-1" d="M1410.27,1657.58H928.12v188.57h396.14a398.8,398.8,0,0,1,28.73-64.62Z"/><path class="cls-1" d="M1991.35,1657.58l57.27,124a397,397,0,0,1,28.72,64.62h396.11V1657.58Z"/><polygon class="cls-1" points="1991.35 1657.58 1700.79 1028.79 1410.27 1657.58 1704.59 1657.58 1991.35 1657.58"/><path class="cls-1" d="M1324.26,1846.15a395.56,395.56,0,0,0-21.49,128.61c0,219.83,178.19,398,398,398s398-178.2,398-398a395.81,395.81,0,0,0-21.46-128.61H1324.26Z"/><path class="cls-1" d="M1704.59,1830.48c-1.95,3.21-.41,6.5.37,9.8a3.6,3.6,0,0,0-.37-2.47Z"/></svg>