<?xml version="1.0" encoding="iso-8859-1"?>
<!-- Generator: Adobe Illustrator 19.0.0, SVG Export Plug-In . SVG Version: 6.00 Build 0)  -->
<svg version="1.1" id="Layer_1" xmlns="http://www.w3.org/2000/svg" xmlns:xlink="http://www.w3.org/1999/xlink" x="0px" y="0px"
	 viewBox="0 0 490 490" style="enable-background:new 0 0 490 490;" xml:space="preserve">
<g>
	<g id="XMLID_30_">
		<g>
			<path style="fill:#546A79;" d="M245,185c33.096,0,60,26.899,60,60c0,33.096-26.904,60-60,60c-33.101,0-60-26.904-60-60
				C185,211.899,211.899,185,245,185z M270,245c0-13.799-11.201-25-25-25c-13.799,0-25,11.201-25,25c0,13.799,11.201,25,25,25
				C258.799,270,270,258.799,270,245z"/>
			<path style="fill:#FFD248;" d="M445,245h-45c0-85.601-69.404-155-155-155V45C355.498,45,445,134.502,445,245z"/>
			<path style="fill:#AFB6BB;" d="M400,245h45c0,110.498-89.502,200-200,200v-45C330.596,400,400,330.596,400,245z"/>
			<path style="fill:#231F20;" d="M245,220c13.799,0,25,11.201,25,25c0,13.799-11.201,25-25,25c-13.799,0-25-11.201-25-25
				C220,231.201,231.201,220,245,220z"/>
			<path style="fill:#FFD248;" d="M245,400v45c-110.498,0-200-89.502-200-200h45C90,330.596,159.399,400,245,400z"/>
			<path style="fill:#AFB6BB;" d="M245,45v45c-85.601,0-155,69.399-155,155H45C45,134.502,134.502,45,245,45z"/>
		</g>
		<g>
			<path style="fill:#231F20;" d="M245,175c-38.598,0-70,31.402-70,70s31.402,70,70,70s70-31.402,70-70S283.598,175,245,175z
				 M245,295c-27.57,0-50-22.43-50-50s22.43-50,50-50s50,22.43,50,50S272.57,295,245,295z"/>
			<path style="fill:#231F20;" d="M490,235h-35.237c-2.436-52.356-23.966-101.219-61.255-138.508S307.356,37.673,255,35.237V0h-20
				v35.237c-52.356,2.436-101.219,23.966-138.508,61.255S37.673,182.644,35.237,235H0v20h35.237
				c2.436,52.356,23.966,101.219,61.255,138.508S182.644,452.327,235,454.763V490h20v-35.237
				c52.356-2.436,101.219-23.966,138.508-61.255S452.327,307.356,454.763,255H490V235z M379.366,110.634
				c33.511,33.511,52.953,77.354,55.372,124.366h-25.05C404.699,151.967,338.033,85.301,255,80.312v-25.05
				C302.011,57.681,345.855,77.124,379.366,110.634z M389.649,255C384.72,327,327,384.72,255,389.649V355h-20v34.649
				C163,384.72,105.28,327,100.351,255H135v-20h-34.649C105.28,163,163,105.28,235,100.351V135h20v-34.649
				C327,105.28,384.72,163,389.649,235H355v20H389.649z M110.634,110.634C144.145,77.124,187.989,57.681,235,55.262v25.05
				C151.967,85.301,85.301,151.967,80.312,235h-25.05C57.681,187.989,77.123,144.145,110.634,110.634z M110.634,379.366
				C77.123,345.855,57.681,302.011,55.262,255h25.05C85.301,338.033,151.967,404.699,235,409.688v25.05
				C187.989,432.319,144.145,412.877,110.634,379.366z M379.366,379.366c-33.511,33.511-77.354,52.953-124.366,55.372v-25.05
				c83.033-4.989,149.699-71.655,154.688-154.688h25.05C432.319,302.011,412.876,345.855,379.366,379.366z"/>
		</g>
	</g>
</g>
<g>
</g>
<g>
</g>
<g>
</g>
<g>
</g>
<g>
</g>
<g>
</g>
<g>
</g>
<g>
</g>
<g>
</g>
<g>
</g>
<g>
</g>
<g>
</g>
<g>
</g>
<g>
</g>
<g>
</g>
</svg>
