<?xml version="1.0" encoding="iso-8859-1"?>
<!-- Generator: Adobe Illustrator 19.0.0, SVG Export Plug-In . SVG Version: 6.00 Build 0)  -->
<svg version="1.1" id="Layer_1" xmlns="http://www.w3.org/2000/svg" xmlns:xlink="http://www.w3.org/1999/xlink" x="0px" y="0px"
	 viewBox="0 0 490 490" style="enable-background:new 0 0 490 490;" xml:space="preserve">
<g>
	<g id="XMLID_30_">
		<g>
			<path style="fill:#AFB6BB;" d="M345,345c16.602,0,30,13.398,30,30s-13.398,30-30,30H215c-16.602,0-30-13.398-30-30
				c0-8.301,3.398-15.801,8.799-21.201c5.4-5.4,12.9-8.799,21.201-8.799h90H345z"/>
			<path style="fill:#FFFFFF;" d="M430,110v370H60V10h270v100H430z M375,375c0-16.602-13.398-30-30-30h-40c16.602,0,30-13.398,30-30
				s-13.398-30-30-30h30c16.602,0,30-13.398,30-30s-13.398-30-30-30h-60c16.602,0,30-13.398,30-30s-13.398-30-30-30H145
				c-8.301,0-15.801,3.398-21.201,8.799c-5.4,5.4-8.799,12.9-8.799,21.201c0,16.602,13.398,30,30,30h60
				c-8.301,0-15.801,3.398-21.201,8.799c-5.4,5.4-8.799,12.9-8.799,21.201c0,16.602,13.398,30,30,30h-30
				c-8.301,0-15.801,3.398-21.201,8.799c-5.4,5.4-8.799,12.9-8.799,21.201c0,16.602,13.398,30,30,30h40
				c-8.301,0-15.801,3.398-21.201,8.799c-5.4,5.4-8.799,12.9-8.799,21.201c0,16.602,13.398,30,30,30h130
				C361.602,405,375,391.602,375,375z"/>
			<polygon style="fill:#AFB6BB;" points="430,110 330,110 330,10 			"/>
			<path style="fill:#F4661E;" d="M335,225c16.602,0,30,13.398,30,30s-13.398,30-30,30h-30H205c-16.602,0-30-13.398-30-30
				c0-8.301,3.398-15.801,8.799-21.201c5.4-5.4,12.9-8.799,21.201-8.799h70H335z"/>
			<path style="fill:#31C0D8;" d="M305,285c16.602,0,30,13.398,30,30s-13.398,30-30,30h-90h-40c-16.602,0-30-13.398-30-30
				c0-8.301,3.398-15.801,8.799-21.201c5.4-5.4,12.9-8.799,21.201-8.799h30H305z"/>
			<path style="fill:#FFD248;" d="M275,165c16.602,0,30,13.398,30,30s-13.398,30-30,30h-70h-60c-16.602,0-30-13.398-30-30
				c0-8.301,3.398-15.801,8.799-21.201c5.4-5.4,12.9-8.799,21.201-8.799H275z"/>
		</g>
		<g>
			<path style="fill:#231F20;" d="M439.976,110c-0.001-2.602-0.993-5.159-2.905-7.071l-100-100c-1.913-1.912-4.47-2.904-7.071-2.905
				V0H60c-5.523,0-10,4.477-10,10v470c0,5.523,4.477,10,10,10h370c5.523,0,10-4.477,10-10V110H439.976z M340,34.142L405.858,100H340
				V34.142z M70,470V20h250v90c0,5.523,4.477,10,10,10h90v350H70z"/>
			<path style="fill:#231F20;" d="M345,335h-5.381c3.415-5.888,5.381-12.717,5.381-20c0-7.389-2.021-14.31-5.529-20.256
				C359.43,292.513,375,275.544,375,255c0-22.056-17.944-40-40-40h-25.381c3.415-5.888,5.381-12.717,5.381-20
				c0-22.056-17.944-40-40-40H145c-10.669,0-20.71,4.165-28.272,11.728C109.165,174.291,105,184.331,105,195
				c0,22.056,17.944,40,40,40h25.365c-3.494,6.019-5.365,12.867-5.365,20c0,7.388,2.021,14.31,5.528,20.256
				c-8.98,0.996-17.305,4.976-23.801,11.472C139.165,294.29,135,304.331,135,315c0,22.056,17.944,40,40,40h5.366
				c-3.495,6.019-5.366,12.867-5.366,20c0,22.056,17.944,40,40,40h130c22.056,0,40-17.944,40-40S367.056,335,345,335z M125,195
				c0-5.327,2.085-10.345,5.87-14.13c3.785-3.786,8.803-5.87,14.13-5.87h130c11.028,0,20,8.972,20,20s-8.972,20-20,20H145
				C133.972,215,125,206.028,125,195z M335,235c11.028,0,20,8.972,20,20c0,11.028-8.972,20-20,20H205c-11.028,0-20-8.972-20-20
				c0-5.327,2.085-10.345,5.87-14.13c3.785-3.786,8.803-5.87,14.13-5.87H335z M155,315c0-5.327,2.085-10.345,5.87-14.13
				c3.785-3.786,8.803-5.87,14.13-5.87h130c11.028,0,20,8.972,20,20s-8.972,20-20,20H175C163.972,335,155,326.028,155,315z M345,395
				H215c-11.028,0-20-8.972-20-20c0-5.327,2.085-10.345,5.87-14.13c3.785-3.786,8.803-5.87,14.13-5.87h130c11.028,0,20,8.972,20,20
				S356.028,395,345,395z"/>
		</g>
	</g>
	<g>
		<rect x="100" y="50" style="fill:#231F20;" width="60" height="20"/>
	</g>
	<g>
		<rect x="100" y="80" style="fill:#231F20;" width="120" height="20"/>
	</g>
</g>
<g>
</g>
<g>
</g>
<g>
</g>
<g>
</g>
<g>
</g>
<g>
</g>
<g>
</g>
<g>
</g>
<g>
</g>
<g>
</g>
<g>
</g>
<g>
</g>
<g>
</g>
<g>
</g>
<g>
</g>
</svg>
