<?xml version="1.0" encoding="iso-8859-1"?>
<!-- Generator: Adobe Illustrator 19.0.0, SVG Export Plug-In . SVG Version: 6.00 Build 0)  -->
<svg version="1.1" id="Layer_1" xmlns="http://www.w3.org/2000/svg" xmlns:xlink="http://www.w3.org/1999/xlink" x="0px" y="0px"
	 viewBox="0 0 490 490" style="enable-background:new 0 0 490 490;" xml:space="preserve">
<g>
	<g>
		<path style="fill:#E7ECED;" d="M385,390c13.799,0,25,11.201,25,25s-11.201,25-25,25s-25-11.201-25-25S371.201,390,385,390z"/>
		<path style="fill:#E7ECED;" d="M245,390c13.799,0,25,11.201,25,25s-11.201,25-25,25c-13.799,0-25-11.201-25-25
			S231.201,390,245,390z"/>
		<path style="fill:#E7ECED;" d="M105,390c13.799,0,25,11.201,25,25s-11.201,25-25,25s-25-11.201-25-25S91.201,390,105,390z"/>
		<rect x="70" y="45" style="fill:#FFFFFF;" width="70" height="190"/>
		<rect x="210" y="45" style="fill:#FFFFFF;" width="70" height="190"/>
		<rect x="350" y="45" style="fill:#FFFFFF;" width="70" height="190"/>
	</g>
	<g>
		<g id="XMLID_40_">
			<g>
				<path style="fill:#414042;" d="M445,10H325c-5.5,0-10,4.5-10,10c0-5.5-4.5-10-10-10H185c-5.5,0-10,4.5-10,10c0-5.5-4.5-10-10-10
					H45c-5.5,0-10,4.5-10,10v305h140h140h140V20C455,14.5,450.5,10,445,10z"/>
				<path style="fill:#4C4B4D;" d="M35,316.626V470c0,5.5,4.5,10,10,10h120c5.5,0,10-4.5,10-10c0,5.5,4.5,10,10,10h120
					c5.5,0,10-4.5,10-10c0,5.5,4.5,10,10,10h120c5.5,0,10-4.5,10-10V316.626H35z"/>
			</g>
			<path style="fill:#231F20;" d="M445,0H325c-3.645,0-7.054,0.996-10,2.706C312.054,0.996,308.645,0,305,0H185
				c-3.645,0-7.054,0.996-10,2.706C172.054,0.996,168.645,0,165,0H45C33.972,0,25,8.972,25,20v450c0,11.028,8.972,20,20,20h120
				c3.645,0,7.054-0.996,10-2.706c2.946,1.71,6.355,2.706,10,2.706h120c3.645,0,7.054-0.996,10-2.706
				c2.946,1.71,6.355,2.706,10,2.706h120c11.028,0,20-8.972,20-20V20C465,8.972,456.028,0,445,0z M45,470V20l120-0.002V470H45z
				 M185,470V20h120v450H185z M445,470l-120,0.002V20h120V470z"/>
		</g>
	</g>
	<g>
		<rect x="340" y="265" style="fill:#231F20;" width="90" height="20"/>
	</g>
	<g>
		<rect x="340" y="305" style="fill:#231F20;" width="90" height="20"/>
	</g>
	<g>
		<rect x="340" y="345" style="fill:#231F20;" width="90" height="20"/>
	</g>
	<g>
		<rect x="200" y="265" style="fill:#231F20;" width="90" height="20"/>
	</g>
	<g>
		<rect x="200" y="305" style="fill:#231F20;" width="90" height="20"/>
	</g>
	<g>
		<rect x="200" y="345" style="fill:#231F20;" width="90" height="20"/>
	</g>
	<g>
		<rect x="60" y="265" style="fill:#231F20;" width="90" height="20"/>
	</g>
	<g>
		<rect x="60" y="305" style="fill:#231F20;" width="90" height="20"/>
	</g>
	<g>
		<rect x="60" y="345" style="fill:#231F20;" width="90" height="20"/>
	</g>
	<g id="XMLID_36_">
		<g>
			<path style="fill:#E7ECED;" d="M385,390c13.8,0,25,11.2,25,25s-11.2,25-25,25s-25-11.2-25-25S371.2,390,385,390z"/>
			<path style="fill:#E7ECED;" d="M245,390c13.8,0,25,11.2,25,25s-11.2,25-25,25c-13.8,0-25-11.2-25-25S231.2,390,245,390z"/>
			<path style="fill:#E7ECED;" d="M105,390c13.8,0,25,11.2,25,25s-11.2,25-25,25s-25-11.2-25-25S91.2,390,105,390z"/>
			<rect x="350" y="45" style="fill:#E7ECED;" width="70" height="190"/>
			<rect x="210" y="45" style="fill:#E7ECED;" width="70" height="190"/>
			<rect x="70" y="45" style="fill:#E7ECED;" width="70" height="190"/>
		</g>
		<g>
			<g>
				<path style="fill:#231F20;" d="M420,245h-70c-5.522,0-10-4.477-10-10V45c0-5.522,4.478-10,10-10h70c5.522,0,10,4.478,10,10v190
					C430,240.523,425.522,245,420,245z M360,225h50V55h-50V225z"/>
			</g>
			<g>
				<path style="fill:#231F20;" d="M385,450c-19.299,0-35-15.701-35-35s15.701-35,35-35s35,15.701,35,35S404.299,450,385,450z
					 M385,400c-8.272,0-15,6.728-15,15s6.728,15,15,15s15-6.728,15-15S393.272,400,385,400z"/>
			</g>
			<g>
				<path style="fill:#231F20;" d="M280,245h-70c-5.523,0-10-4.477-10-10V45c0-5.522,4.477-10,10-10h70c5.522,0,10,4.478,10,10v190
					C290,240.523,285.522,245,280,245z M220,225h50V55h-50V225z"/>
			</g>
			<g>
				<path style="fill:#231F20;" d="M245,450c-19.299,0-35-15.701-35-35s15.701-35,35-35s35,15.701,35,35S264.299,450,245,450z
					 M245,400c-8.271,0-15,6.728-15,15s6.729,15,15,15s15-6.728,15-15S253.271,400,245,400z"/>
			</g>
			<g>
				<path style="fill:#231F20;" d="M140,245H70c-5.523,0-10-4.477-10-10V45c0-5.522,4.477-10,10-10h70c5.523,0,10,4.478,10,10v190
					C150,240.523,145.523,245,140,245z M80,225h50V55H80V225z"/>
			</g>
			<g>
				<path style="fill:#231F20;" d="M105,450c-19.299,0-35-15.701-35-35s15.701-35,35-35s35,15.701,35,35S124.299,450,105,450z
					 M105,400c-8.271,0-15,6.728-15,15s6.729,15,15,15s15-6.728,15-15S113.271,400,105,400z"/>
			</g>
		</g>
	</g>
</g>
<g>
</g>
<g>
</g>
<g>
</g>
<g>
</g>
<g>
</g>
<g>
</g>
<g>
</g>
<g>
</g>
<g>
</g>
<g>
</g>
<g>
</g>
<g>
</g>
<g>
</g>
<g>
</g>
<g>
</g>
</svg>
